<?xml version="1.0" encoding="UTF-8" standalone="no"?>
<!-- Created with Inkscape (http://www.inkscape.org/) -->

<svg
   width="113mm"
   height="98mm"
   viewBox="0 0 113 98"
   version="1.1"
   id="svg1263"
   inkscape:export-filename="bitmap.png"
   inkscape:export-xdpi="96"
   inkscape:export-ydpi="96"
   inkscape:version="1.2.2 (b0a8486541, 2022-12-01)"
   sodipodi:docname="drawing.svg"
   xmlns:inkscape="http://www.inkscape.org/namespaces/inkscape"
   xmlns:sodipodi="http://sodipodi.sourceforge.net/DTD/sodipodi-0.dtd"
   xmlns="http://www.w3.org/2000/svg"
   xmlns:svg="http://www.w3.org/2000/svg">
  <sodipodi:namedview
     id="namedview1265"
     pagecolor="#ffffff"
     bordercolor="#000000"
     borderopacity="0.25"
     inkscape:showpageshadow="2"
     inkscape:pageopacity="0.0"
     inkscape:pagecheckerboard="0"
     inkscape:deskcolor="#d1d1d1"
     inkscape:document-units="mm"
     showgrid="false"
     inkscape:zoom="0.77147868"
     inkscape:cx="396.6409"
     inkscape:cy="250.16894"
     inkscape:window-width="1920"
     inkscape:window-height="1008"
     inkscape:window-x="1920"
     inkscape:window-y="0"
     inkscape:window-maximized="1"
     inkscape:current-layer="layer1" />
  <defs
     id="defs1260">
    <clipPath
       clipPathUnits="userSpaceOnUse"
       id="clipPath654">
      <path
         d="M 0,500 H 750 V 0 H 0 Z"
         id="path652" />
    </clipPath>
    <linearGradient
       x1="0"
       y1="0"
       x2="1"
       y2="0"
       gradientUnits="userSpaceOnUse"
       gradientTransform="matrix(96.026657,38.234512,38.234512,-96.026657,526.41028,145.73814)"
       spreadMethod="pad"
       id="linearGradient644">
      <stop
         style="stop-opacity:1;stop-color:#ffe600"
         offset="0"
         id="stop638" />
      <stop
         style="stop-opacity:1;stop-color:#ffb300"
         offset="0.41953172"
         id="stop640" />
      <stop
         style="stop-opacity:1;stop-color:#ffb300"
         offset="1"
         id="stop642" />
    </linearGradient>
    <clipPath
       clipPathUnits="userSpaceOnUse"
       id="clipPath552">
      <path
         d="M 0,500 H 750 V 0 H 0 Z"
         id="path550" />
    </clipPath>
    <clipPath
       clipPathUnits="userSpaceOnUse"
       id="clipPath564">
      <path
         d="m 518.949,221.784 h 75.153 v -29.892 h -75.153 z"
         id="path562" />
    </clipPath>
    <linearGradient
       x1="0"
       y1="0"
       x2="1"
       y2="0"
       gradientUnits="userSpaceOnUse"
       gradientTransform="matrix(126.12067,81.424049,81.424049,-126.12067,512.08289,167.58789)"
       spreadMethod="pad"
       id="linearGradient576">
      <stop
         style="stop-opacity:1;stop-color:#00baff"
         offset="0"
         id="stop570" />
      <stop
         style="stop-opacity:1;stop-color:#446acd"
         offset="0.41953172"
         id="stop572" />
      <stop
         style="stop-opacity:1;stop-color:#446acd"
         offset="1"
         id="stop574" />
    </linearGradient>
    <clipPath
       clipPathUnits="userSpaceOnUse"
       id="clipPath598">
      <path
         d="m 571.361,242.29 h 15.023 v -15.024 h -15.023 z"
         id="path596" />
    </clipPath>
    <linearGradient
       x1="0"
       y1="0"
       x2="1"
       y2="0"
       gradientUnits="userSpaceOnUse"
       gradientTransform="matrix(123.919,80.002647,80.002647,-123.919,502.31964,185.35493)"
       spreadMethod="pad"
       id="linearGradient610">
      <stop
         style="stop-opacity:1;stop-color:#00baff"
         offset="0"
         id="stop604" />
      <stop
         style="stop-opacity:1;stop-color:#446acd"
         offset="0.41953172"
         id="stop606" />
      <stop
         style="stop-opacity:1;stop-color:#446acd"
         offset="1"
         id="stop608" />
    </linearGradient>
    <linearGradient
       x1="0"
       y1="0"
       x2="1"
       y2="0"
       gradientUnits="userSpaceOnUse"
       gradientTransform="matrix(141.88596,56.49411,56.49411,-141.88596,473.52063,177.59305)"
       spreadMethod="pad"
       id="linearGradient542">
      <stop
         style="stop-opacity:1;stop-color:#ffe600"
         offset="0"
         id="stop536" />
      <stop
         style="stop-opacity:1;stop-color:#ffb300"
         offset="0.41953172"
         id="stop538" />
      <stop
         style="stop-opacity:1;stop-color:#ffb300"
         offset="1"
         id="stop540" />
    </linearGradient>
    <clipPath
       clipPathUnits="userSpaceOnUse"
       id="clipPath518">
      <path
         d="M 0,500 H 750 V 0 H 0 Z"
         id="path516" />
    </clipPath>
    <linearGradient
       x1="0"
       y1="0"
       x2="1"
       y2="0"
       gradientUnits="userSpaceOnUse"
       gradientTransform="matrix(96.199921,-45.335594,-45.335594,-96.199921,407.90268,268.76608)"
       spreadMethod="pad"
       id="linearGradient508">
      <stop
         style="stop-opacity:1;stop-color:#ffe600"
         offset="0"
         id="stop502" />
      <stop
         style="stop-opacity:1;stop-color:#ffb300"
         offset="0.41953172"
         id="stop504" />
      <stop
         style="stop-opacity:1;stop-color:#ffb300"
         offset="1"
         id="stop506" />
    </linearGradient>
    <clipPath
       clipPathUnits="userSpaceOnUse"
       id="clipPath414">
      <path
         d="M 0,500 H 750 V 0 H 0 Z"
         id="path412" />
    </clipPath>
    <clipPath
       clipPathUnits="userSpaceOnUse"
       id="clipPath438">
      <path
         d="m 427.71,217.561 h 63.65 v -36.912 h -63.65 z"
         id="path436" />
    </clipPath>
    <linearGradient
       x1="0"
       y1="0"
       x2="1"
       y2="0"
       gradientUnits="userSpaceOnUse"
       gradientTransform="matrix(120.31693,58.389099,58.389099,-120.31693,413.62994,176.71121)"
       spreadMethod="pad"
       id="linearGradient450">
      <stop
         style="stop-opacity:1;stop-color:#00baff"
         offset="0"
         id="stop444" />
      <stop
         style="stop-opacity:1;stop-color:#446acd"
         offset="0.41953172"
         id="stop446" />
      <stop
         style="stop-opacity:1;stop-color:#446acd"
         offset="1"
         id="stop448" />
    </linearGradient>
    <linearGradient
       x1="0"
       y1="0"
       x2="1"
       y2="0"
       gradientUnits="userSpaceOnUse"
       gradientTransform="matrix(29.500078,-118.77518,-109.38583,-12.614302,456.29672,312.16003)"
       spreadMethod="pad"
       id="linearGradient404">
      <stop
         style="stop-opacity:1;stop-color:#00baff"
         offset="0"
         id="stop398" />
      <stop
         style="stop-opacity:1;stop-color:#446acd"
         offset="0.41953172"
         id="stop400" />
      <stop
         style="stop-opacity:1;stop-color:#446acd"
         offset="1"
         id="stop402" />
    </linearGradient>
    <clipPath
       clipPathUnits="userSpaceOnUse"
       id="clipPath380">
      <path
         d="M 0,500 H 750 V 0 H 0 Z"
         id="path378" />
    </clipPath>
    <linearGradient
       x1="0"
       y1="0"
       x2="1"
       y2="0"
       gradientUnits="userSpaceOnUse"
       gradientTransform="matrix(365.40784,138.56265,138.56265,-365.40784,348.43909,189.93782)"
       spreadMethod="pad"
       id="linearGradient370">
      <stop
         style="stop-opacity:1;stop-color:#00baff"
         offset="0"
         id="stop364" />
      <stop
         style="stop-opacity:1;stop-color:#446acd"
         offset="0.41953172"
         id="stop366" />
      <stop
         style="stop-opacity:1;stop-color:#446acd"
         offset="1"
         id="stop368" />
    </linearGradient>
    <clipPath
       clipPathUnits="userSpaceOnUse"
       id="clipPath296">
      <path
         d="M 0,500 H 750 V 0 H 0 Z"
         id="path294" />
    </clipPath>
    <clipPath
       clipPathUnits="userSpaceOnUse"
       id="clipPath304">
      <path
         d="M 386.181,330.535 H 632.92 V 134.22 H 386.181 Z"
         id="path302" />
    </clipPath>
    <linearGradient
       x1="0"
       y1="0"
       x2="1"
       y2="0"
       gradientUnits="userSpaceOnUse"
       gradientTransform="matrix(274.63693,-245.7278,-245.7278,-274.63693,421.70422,317.10422)"
       spreadMethod="pad"
       id="linearGradient316">
      <stop
         style="stop-opacity:1;stop-color:#00eaff"
         offset="0"
         id="stop310" />
      <stop
         style="stop-opacity:1;stop-color:#446acd"
         offset="0.41953172"
         id="stop312" />
      <stop
         style="stop-opacity:1;stop-color:#446acd"
         offset="1"
         id="stop314" />
    </linearGradient>
    <linearGradient
       x1="0"
       y1="0"
       x2="1"
       y2="0"
       gradientUnits="userSpaceOnUse"
       gradientTransform="matrix(178.2914,0,0,-178.2914,454.62888,204.39049)"
       spreadMethod="pad"
       id="linearGradient286">
      <stop
         style="stop-opacity:1;stop-color:#00a7e6"
         offset="0"
         id="stop280" />
      <stop
         style="stop-opacity:1;stop-color:#43348a"
         offset="0.41953172"
         id="stop282" />
      <stop
         style="stop-opacity:1;stop-color:#43348a"
         offset="1"
         id="stop284" />
    </linearGradient>
    <clipPath
       clipPathUnits="userSpaceOnUse"
       id="clipPath200">
      <path
         d="M 0,500 H 750 V 0 H 0 Z"
         id="path198" />
    </clipPath>
    <clipPath
       clipPathUnits="userSpaceOnUse"
       id="clipPath224">
      <path
         d="M 396.449,140.354 H 573.243 V 116.002 H 396.449 Z"
         id="path222" />
    </clipPath>
    <clipPath
       clipPathUnits="userSpaceOnUse"
       id="clipPath240">
      <path
         d="M 392.102,374.841 H 633.01 V 134.22 H 392.102 Z"
         id="path238" />
    </clipPath>
    <linearGradient
       x1="0"
       y1="0"
       x2="1"
       y2="0"
       gradientUnits="userSpaceOnUse"
       gradientTransform="matrix(226.90506,-56.846905,-56.846905,-226.90506,403.77399,280.35983)"
       spreadMethod="pad"
       id="linearGradient252">
      <stop
         style="stop-opacity:1;stop-color:#00a7e6"
         offset="0"
         id="stop246" />
      <stop
         style="stop-opacity:1;stop-color:#43348a"
         offset="0.41953172"
         id="stop248" />
      <stop
         style="stop-opacity:1;stop-color:#43348a"
         offset="1"
         id="stop250" />
    </linearGradient>
  </defs>
  <g
     inkscape:label="Layer 1"
     inkscape:groupmode="layer"
     id="layer1">
    <g
       id="g2201"
       transform="translate(-17.839579,-105.58823)">
      <g
         id="g194"
         transform="matrix(0.35277777,0,0,-0.35277777,-97.454981,238.75195)">
        <g
           id="g196"
           clip-path="url(#clipPath200)">
          <g
             id="g202"
             transform="translate(447.4805,141.8994)">
            <path
               d="m 0,0 24.754,128.881 168.97,12.181 2.263,-0.455 -26.911,-157.121 h -2.046 z"
               style="fill:#d2cff7;fill-opacity:1;fill-rule:nonzero;stroke:none"
               id="path204" />
          </g>
          <g
             id="g206"
             transform="translate(444.4697,141.8994)">
            <path
               d="M 0,0 24.755,128.881 196.734,141.062 170.041,-16.514 Z"
               style="fill:#ffffff;fill-opacity:1;fill-rule:nonzero;stroke:none"
               id="path208" />
          </g>
          <g
             id="g210"
             transform="translate(331.0337,133.6582)">
            <path
               d="M 0,0 113.648,8.074 285.523,-6.061 V -8.272 L 158.198,-30.379 c -1.637,-0.274 -3.308,-0.271 -4.944,0.01 L 0.741,-2.512 C -0.348,-2.324 0,0 0,0"
               style="fill:#d2cff7;fill-opacity:1;fill-rule:nonzero;stroke:none"
               id="path212" />
          </g>
          <g
             id="g214"
             transform="translate(331.8481,134.3184)">
            <path
               d="m 0,0 112.833,10.396 170.07,-16.968 -125.52,-21.486 c -1.636,-0.274 -3.307,-0.271 -4.943,0.009 L -0.073,-1.873 C -1.163,-1.686 -1.101,-0.102 0,0"
               style="fill:#ffffff;fill-opacity:1;fill-rule:nonzero;stroke:none"
               id="path216" />
          </g>
          <g
             id="g218">
            <g
               id="g220" />
            <g
               id="g232">
              <g
                 clip-path="url(#clipPath224)"
                 opacity="0.529999"
                 id="g230">
                <g
                   transform="translate(396.4492,135.2803)"
                   id="g228">
                  <path
                     d="m 0,0 51.111,5.073 125.682,-14.568 -56.29,-9.783 z"
                     style="fill:#d2cff7;fill-opacity:1;fill-rule:nonzero;stroke:none"
                     id="path226" />
                </g>
              </g>
            </g>
          </g>
          <g
             id="g234">
            <g
               id="g236" />
            <g
               id="g266">
              <g
                 clip-path="url(#clipPath240)"
                 opacity="0.490005"
                 id="g264">
                <g
                   id="g262">
                  <g
                     id="g260">
                    <g
                       id="g258">
                      <g
                         id="g256">
                        <path
                           d="m 632.92,274.561 c 0,0 3.371,77.231 -31.263,34.61 -21.804,-26.832 -12.116,6.506 -41.804,36.455 -41.499,41.862 -130.106,38.408 -141.793,-8.244 -13.96,-55.723 39.965,-62.565 25.097,-84.27 -14.867,-21.705 -31.151,13.348 -46.708,-13.517 -23.846,-41.182 58.18,-90.138 58.18,-90.138 l 153.68,-15.236 z"
                           style="fill:url(#linearGradient252);stroke:none"
                           id="path254" />
                      </g>
                    </g>
                  </g>
                </g>
              </g>
            </g>
          </g>
        </g>
      </g>
      <g
         id="g268"
         transform="matrix(0.35277777,0,0,-0.35277777,-97.454981,238.75195)">
        <g
           id="g270">
          <g
             id="g276">
            <g
               id="g278">
              <path
                 d="M 476.547,264.9 454.629,149.457 608.308,134.221 632.92,274.56 Z"
                 style="fill:url(#linearGradient286);stroke:none"
                 id="path288" />
            </g>
          </g>
        </g>
      </g>
      <g
         id="g290"
         transform="matrix(0.35277777,0,0,-0.35277777,-97.454981,238.75195)">
        <g
           id="g292"
           clip-path="url(#clipPath296)">
          <g
             id="g298">
            <g
               id="g300" />
            <g
               id="g330">
              <g
                 clip-path="url(#clipPath304)"
                 opacity="0.710007"
                 id="g328">
                <g
                   id="g326">
                  <g
                     id="g324">
                    <g
                       id="g322">
                      <g
                         id="g320">
                        <path
                           d="m 632.92,274.561 c 0,0 -30.03,64.119 -60.691,39.498 -18.062,-14.505 -9.312,-43.823 -50.387,-11.231 -79.46,63.048 -171.232,5.991 -121.631,-47.082 36.461,-39.014 52.747,-58.595 22.32,-58.595 -27.372,0 -28.272,-40.11 32.098,-47.694 l 153.68,-15.236 z"
                           style="fill:url(#linearGradient316);stroke:none"
                           id="path318" />
                      </g>
                    </g>
                  </g>
                </g>
              </g>
            </g>
          </g>
          <g
             id="g332"
             transform="translate(537.5186,309.9937)">
            <path
               d="m 0,0 c 0,-2.551 -2.068,-4.618 -4.618,-4.618 -2.551,0 -4.619,2.067 -4.619,4.618 0,2.551 2.068,4.618 4.619,4.618 C -2.068,4.618 0,2.551 0,0"
               style="fill:#00a8dd;fill-opacity:1;fill-rule:nonzero;stroke:none"
               id="path334" />
          </g>
          <g
             id="g336"
             transform="translate(510.3652,325.5825)">
            <path
               d="m 0,0 c 0,-1.554 -1.26,-2.814 -2.814,-2.814 -1.554,0 -2.814,1.26 -2.814,2.814 0,1.554 1.26,2.814 2.814,2.814 C -1.26,2.814 0,1.554 0,0"
               style="fill:#009bd7;fill-opacity:1;fill-rule:nonzero;stroke:none"
               id="path338" />
          </g>
          <g
             id="g340"
             transform="translate(638.5479,297.7339)">
            <path
               d="m 0,0 c 0,-1.554 -1.26,-2.814 -2.813,-2.814 -1.555,0 -2.815,1.26 -2.815,2.814 0,1.554 1.26,2.813 2.815,2.813 C -1.26,2.813 0,1.554 0,0"
               style="fill:#009bd7;fill-opacity:1;fill-rule:nonzero;stroke:none"
               id="path342" />
          </g>
          <g
             id="g344"
             transform="translate(403.7588,234.7783)">
            <path
               d="m 0,0 c 0,-1.555 -1.261,-2.814 -2.814,-2.814 -1.554,0 -2.814,1.259 -2.814,2.814 0,1.554 1.26,2.813 2.814,2.813 C -1.261,2.813 0,1.554 0,0"
               style="fill:#009bd7;fill-opacity:1;fill-rule:nonzero;stroke:none"
               id="path346" />
          </g>
          <g
             id="g348"
             transform="translate(386.1816,157.3359)">
            <path
               d="m 0,0 c 0,-1.554 -1.26,-2.813 -2.814,-2.813 -1.554,0 -2.814,1.259 -2.814,2.813 0,1.554 1.26,2.813 2.814,2.813 C -1.26,2.813 0,1.554 0,0"
               style="fill:#009bd7;fill-opacity:1;fill-rule:nonzero;stroke:none"
               id="path350" />
          </g>
        </g>
      </g>
      <g
         id="g352"
         transform="matrix(0.35277777,0,0,-0.35277777,-97.454981,238.75195)">
        <g
           id="g354">
          <g
             id="g360">
            <g
               id="g362">
              <path
                 d="m 401.853,212.018 c 0,-2.658 2.155,-4.814 4.813,-4.814 v 0 c 2.658,0 4.813,2.156 4.813,4.814 v 0 c 0,2.658 -2.155,4.813 -4.813,4.813 v 0 c -2.658,0 -4.813,-2.155 -4.813,-4.813"
                 style="fill:url(#linearGradient370);stroke:none"
                 id="path372" />
            </g>
          </g>
        </g>
      </g>
      <g
         id="g374"
         transform="matrix(0.35277777,0,0,-0.35277777,-97.454981,238.75195)">
        <g
           id="g376"
           clip-path="url(#clipPath380)">
          <g
             id="g382"
             transform="translate(443.1572,253.1123)">
            <path
               d="M 0,0 7.06,37.18 52.075,41.808 45.239,2.83 Z"
               style="fill:#ffffff;fill-opacity:1;fill-rule:nonzero;stroke:none"
               id="path384" />
          </g>
        </g>
      </g>
      <g
         id="g386"
         transform="matrix(0.35277777,0,0,-0.35277777,-97.454981,238.75195)">
        <g
           id="g388">
          <g
             id="g394">
            <g
               id="g396">
              <path
                 d="m 460.869,283.171 c -3.501,-2.516 -4.542,-7.057 -2.323,-10.145 v 0 c 2.218,-3.088 6.855,-3.552 10.356,-1.037 v 0 c 3.5,2.515 4.541,7.058 2.324,10.145 v 0 c -1.258,1.75 -3.291,2.657 -5.454,2.657 v 0 c -1.655,0 -3.385,-0.531 -4.903,-1.62"
                 style="fill:url(#linearGradient404);stroke:none"
                 id="path406" />
            </g>
          </g>
        </g>
      </g>
      <g
         id="g408"
         transform="matrix(0.35277777,0,0,-0.35277777,-97.454981,238.75195)">
        <g
           id="g410"
           clip-path="url(#clipPath414)">
          <g
             id="g416"
             transform="translate(354.9209,167.6572)">
            <path
               d="m 0,0 h 225.468 l 81.863,74.632 z"
               style="fill:none;stroke:#ffffff;stroke-width:0.25;stroke-linecap:butt;stroke-linejoin:miter;stroke-miterlimit:10;stroke-dasharray:none;stroke-opacity:1"
               id="path418" />
          </g>
          <g
             id="g420"
             transform="translate(479.4238,278.3564)">
            <path
               d="m 0,0 c -7.189,-7.576 -124.503,-110.699 -124.503,-110.699 l 140.312,-42.272 55.78,109.393 z"
               style="fill:none;stroke:#ffffff;stroke-width:0.25;stroke-linecap:butt;stroke-linejoin:miter;stroke-miterlimit:10;stroke-dasharray:none;stroke-opacity:1"
               id="path422" />
          </g>
          <g
             id="g424"
             transform="translate(356.77,167.7881)">
            <path
               d="m 0,0 c 0,-1.021 -0.828,-1.849 -1.849,-1.849 -1.021,0 -1.849,0.828 -1.849,1.849 0,1.021 0.828,1.85 1.849,1.85 C -0.828,1.85 0,1.021 0,0"
               style="fill:#ffffff;fill-opacity:1;fill-rule:nonzero;stroke:none"
               id="path426" />
          </g>
          <g
             id="g428"
             transform="translate(417.9033,175.291)">
            <path
               d="m 0,0 9.648,49.675 74.996,1.669 -9.937,-56.37 z"
               style="fill:#ffffff;fill-opacity:1;fill-rule:nonzero;stroke:none"
               id="path430" />
          </g>
          <g
             id="g432">
            <g
               id="g434" />
            <g
               id="g464">
              <g
                 clip-path="url(#clipPath438)"
                 opacity="0.710007"
                 id="g462">
                <g
                   id="g460">
                  <g
                     id="g458">
                    <g
                       id="g456">
                      <g
                         id="g454">
                        <path
                           d="m 427.71,183.422 c 0.693,0.231 56.154,-2.774 56.154,-2.774 l 7.495,36.913 -57.178,-0.73 z"
                           style="fill:url(#linearGradient450);stroke:none"
                           id="path452" />
                      </g>
                    </g>
                  </g>
                </g>
              </g>
            </g>
          </g>
          <g
             id="g466"
             transform="translate(429.5986,212.7305)">
            <path
               d="M 0,0 H 64.912 L 61.761,-11.103 -1.542,-10.35 Z"
               style="fill:#ffffff;fill-opacity:1;fill-rule:nonzero;stroke:none"
               id="path468" />
          </g>
          <g
             id="g470"
             transform="translate(426.6348,198.1328)">
            <path
               d="m 0,0 65.919,-1.309 -3.472,-11.214 -63.595,1.84 z"
               style="fill:#ffffff;fill-opacity:1;fill-rule:nonzero;stroke:none"
               id="path472" />
          </g>
          <g
             id="g474"
             transform="translate(661.6533,242.626)">
            <path
               d="m 0,0 c 0,-0.7 0.567,-1.269 1.268,-1.269 0.7,0 1.268,0.569 1.268,1.269 0,0.7 -0.568,1.268 -1.268,1.268 C 0.567,1.268 0,0.7 0,0"
               style="fill:#ffffff;fill-opacity:1;fill-rule:nonzero;stroke:none"
               id="path476" />
          </g>
          <g
             id="g478"
             transform="translate(579.4736,167.7881)">
            <path
               d="m 0,0 c 0,-0.646 0.524,-1.171 1.172,-1.171 0.646,0 1.171,0.525 1.171,1.171 0,0.647 -0.525,1.172 -1.171,1.172 C 0.524,1.172 0,0.647 0,0"
               style="fill:#ffffff;fill-opacity:1;fill-rule:nonzero;stroke:none"
               id="path480" />
          </g>
          <g
             id="g482"
             transform="translate(494.2012,125.3857)">
            <path
               d="m 0,0 c 0,-0.647 0.524,-1.172 1.172,-1.172 0.646,0 1.171,0.525 1.171,1.172 0,0.646 -0.525,1.171 -1.171,1.171 C 0.524,1.171 0,0.646 0,0"
               style="fill:#ffffff;fill-opacity:1;fill-rule:nonzero;stroke:none"
               id="path484" />
          </g>
          <g
             id="g486"
             transform="translate(473.917,264.6919)">
            <path
               d="M 0,0 19.218,18.27 33.906,2.275 Z"
               style="fill:#00e9ff;fill-opacity:1;fill-rule:nonzero;stroke:none"
               id="path488" />
          </g>
        </g>
      </g>
      <g
         id="g490"
         transform="matrix(0.35277777,0,0,-0.35277777,-97.454981,238.75195)">
        <g
           id="g492">
          <g
             id="g498">
            <g
               id="g500">
              <path
                 d="m 431.812,262.4 -3.756,-19.775 22.697,1.419 3.429,19.555 z"
                 style="fill:url(#linearGradient508);stroke:none"
                 id="path510" />
            </g>
          </g>
        </g>
      </g>
      <g
         id="g512"
         transform="matrix(0.35277777,0,0,-0.35277777,-97.454981,238.75195)">
        <g
           id="g514"
           clip-path="url(#clipPath518)">
          <g
             id="g520"
             transform="translate(481.2002,140.5205)">
            <path
               d="m 0,0 2.971,17.416 32.556,-2.295 -3.204,-18.1 z"
               style="fill:#00e9ff;fill-opacity:1;fill-rule:nonzero;stroke:none"
               id="path522" />
          </g>
        </g>
      </g>
      <g
         id="g524"
         transform="matrix(0.35277777,0,0,-0.35277777,-97.454981,238.75195)">
        <g
           id="g526">
          <g
             id="g532">
            <g
               id="g534">
              <path
                 d="m 510.587,208.421 c -6.869,-7.351 -7.037,-18.355 -0.377,-24.577 v 0 c 6.66,-6.224 17.628,-5.309 24.496,2.042 v 0 c 6.868,7.35 7.036,18.354 0.376,24.577 v 0 c -2.968,2.773 -6.793,4.129 -10.728,4.129 v 0 c -4.894,0 -9.96,-2.096 -13.767,-6.171"
                 style="fill:url(#linearGradient542);stroke:none"
                 id="path544" />
            </g>
          </g>
        </g>
      </g>
      <g
         id="g546"
         transform="matrix(0.35277777,0,0,-0.35277777,-97.454981,238.75195)">
        <g
           id="g548"
           clip-path="url(#clipPath552)">
          <g
             id="g554"
             transform="translate(518.9492,194.5664)">
            <path
               d="M 0,0 11.748,61.874 87.047,65.143 75.153,-2.675 Z"
               style="fill:#ffffff;fill-opacity:1;fill-rule:nonzero;stroke:none"
               id="path556" />
          </g>
          <g
             id="g558">
            <g
               id="g560" />
            <g
               id="g590">
              <g
                 clip-path="url(#clipPath564)"
                 opacity="0.710007"
                 id="g588">
                <g
                   id="g586">
                  <g
                     id="g584">
                    <g
                       id="g582">
                      <g
                         id="g580">
                        <path
                           d="m 518.949,194.566 c 0,0 26.101,27.765 36.647,27.21 10.545,-0.555 9.157,-16.335 18.315,-17.602 9.158,-1.269 11.798,1.959 20.192,-12.282 z"
                           style="fill:url(#linearGradient576);stroke:none"
                           id="path578" />
                      </g>
                    </g>
                  </g>
                </g>
              </g>
            </g>
          </g>
          <g
             id="g592">
            <g
               id="g594" />
            <g
               id="g624">
              <g
                 clip-path="url(#clipPath598)"
                 opacity="0.710007"
                 id="g622">
                <g
                   id="g620">
                  <g
                     id="g618">
                    <g
                       id="g616">
                      <g
                         id="g614">
                        <path
                           d="m 571.361,234.778 c 0,-4.148 3.364,-7.511 7.512,-7.511 4.148,0 7.512,3.363 7.512,7.511 0,4.149 -3.364,7.511 -7.512,7.511 -4.148,0 -7.512,-3.362 -7.512,-7.511"
                           style="fill:url(#linearGradient610);stroke:none"
                           id="path612" />
                      </g>
                    </g>
                  </g>
                </g>
              </g>
            </g>
          </g>
        </g>
      </g>
      <g
         id="g626"
         transform="matrix(0.35277777,0,0,-0.35277777,-97.454981,238.75195)">
        <g
           id="g628">
          <g
             id="g634">
            <g
               id="g636">
              <path
                 d="m 548.725,153.647 26.471,-0.908 -11.701,20.188 z"
                 style="fill:url(#linearGradient644);stroke:none"
                 id="path646" />
            </g>
          </g>
        </g>
      </g>
      <g
         id="g648"
         transform="matrix(0.35277777,0,0,-0.35277777,-97.454981,238.75195)">
        <g
           id="g650"
           clip-path="url(#clipPath654)">
          <g
             id="g656"
             transform="translate(517.3721,167.6572)">
            <path
               d="m 0,0 c 0,-0.355 -0.288,-0.645 -0.645,-0.645 -0.356,0 -0.645,0.29 -0.645,0.645 0,0.356 0.289,0.646 0.645,0.646 C -0.288,0.646 0,0.356 0,0"
               style="fill:#ffffff;fill-opacity:1;fill-rule:nonzero;stroke:none"
               id="path658" />
          </g>
          <g
             id="g660"
             transform="translate(547.5547,248.7178)">
            <path
               d="M 0,0 C 5.29,-4.942 14,-4.217 19.455,1.622 24.91,7.46 25.044,16.199 19.754,21.142 14.465,26.084 5.754,25.358 0.3,19.52 -5.155,13.682 -5.289,4.943 0,0"
               style="fill:#00e9ff;fill-opacity:1;fill-rule:nonzero;stroke:none"
               id="path662" />
          </g>
        </g>
      </g>
    </g>
  </g>
</svg>
